<svg xmlns="http://www.w3.org/2000/svg" width="115.18" height="259.179" viewBox="0 0 115.18 259.179">
  <path id="Ellipse_3_copy_9" data-name="Ellipse 3 copy 9" d="M1775.41,770a3.59,3.59,0,1,1,3.59,3.589A3.59,3.59,0,0,1,1775.41,770Zm-36,0a3.59,3.59,0,1,1,3.59,3.589A3.59,3.59,0,0,1,1739.41,770Zm-36,0a3.59,3.59,0,1,1,3.59,3.589A3.59,3.59,0,0,1,1703.41,770Zm-36,0a3.59,3.59,0,1,1,3.59,3.589A3.59,3.59,0,0,1,1667.41,770Zm108-36a3.59,3.59,0,1,1,3.59,3.589A3.59,3.59,0,0,1,1775.41,734Zm-36,0a3.59,3.59,0,1,1,3.59,3.589A3.59,3.59,0,0,1,1739.41,734Zm-36,0a3.59,3.59,0,1,1,3.59,3.589A3.59,3.59,0,0,1,1703.41,734Zm-36,0a3.59,3.59,0,1,1,3.59,3.589A3.59,3.59,0,0,1,1667.41,734Zm108-36a3.59,3.59,0,1,1,3.59,3.589A3.59,3.59,0,0,1,1775.41,698Zm-36,0a3.59,3.59,0,1,1,3.59,3.589A3.59,3.59,0,0,1,1739.41,698Zm-36,0a3.59,3.59,0,1,1,3.59,3.589A3.59,3.59,0,0,1,1703.41,698Zm-36,0a3.59,3.59,0,1,1,3.59,3.589A3.59,3.59,0,0,1,1667.41,698Zm108-36a3.59,3.59,0,1,1,3.59,3.589A3.59,3.59,0,0,1,1775.41,662Zm-36,0a3.59,3.59,0,1,1,3.59,3.589A3.59,3.59,0,0,1,1739.41,662Zm-36,0a3.59,3.59,0,1,1,3.59,3.589A3.59,3.59,0,0,1,1703.41,662Zm-36,0a3.59,3.59,0,1,1,3.59,3.589A3.59,3.59,0,0,1,1667.41,662Zm108-36a3.59,3.59,0,1,1,3.59,3.589A3.59,3.59,0,0,1,1775.41,626Zm-36,0a3.59,3.59,0,1,1,3.59,3.589A3.59,3.59,0,0,1,1739.41,626Zm-36,0a3.59,3.59,0,1,1,3.59,3.589A3.59,3.59,0,0,1,1703.41,626Zm-36,0a3.59,3.59,0,1,1,3.59,3.589A3.59,3.59,0,0,1,1667.41,626Zm108-36a3.59,3.59,0,1,1,3.59,3.589A3.59,3.59,0,0,1,1775.41,590Zm-36,0a3.59,3.59,0,1,1,3.59,3.589A3.59,3.59,0,0,1,1739.41,590Zm-36,0a3.59,3.59,0,1,1,3.59,3.589A3.59,3.59,0,0,1,1703.41,590Zm-36,0a3.59,3.59,0,1,1,3.59,3.589A3.59,3.59,0,0,1,1667.41,590Zm108-36a3.59,3.59,0,1,1,3.59,3.589A3.59,3.59,0,0,1,1775.41,554Zm-36,0a3.59,3.59,0,1,1,3.59,3.589A3.59,3.59,0,0,1,1739.41,554Zm-36,0a3.59,3.59,0,1,1,3.59,3.589A3.59,3.59,0,0,1,1703.41,554Zm-36,0a3.59,3.59,0,1,1,3.59,3.589A3.59,3.59,0,0,1,1667.41,554Zm108-36a3.59,3.59,0,1,1,3.59,3.589A3.59,3.59,0,0,1,1775.41,518Zm-36,0a3.59,3.59,0,1,1,3.59,3.589A3.59,3.59,0,0,1,1739.41,518Zm-36,0a3.59,3.59,0,1,1,3.59,3.589A3.59,3.59,0,0,1,1703.41,518Zm-36,0a3.59,3.59,0,1,1,3.59,3.589A3.59,3.59,0,0,1,1667.41,518Z" transform="translate(-1667.41 -514.41)" fill="#f69"/>
</svg>
