<svg xmlns="http://www.w3.org/2000/svg" width="50" height="44" viewBox="0 0 50 44">
  <g id="Logo" transform="translate(-41 -58)">
    <g id="Vector_Smart_Object" data-name="Vector Smart Object" transform="translate(41 54.969)">
      <g id="Groupe_3" data-name="Groupe 3">
        <path id="Tracé_2" data-name="Tracé 2" d="M49.707,11.244,47.368,9.478a6.494,6.494,0,0,1-4.692,2.353c-2.608,0-9.951-1.738-13.462-2.647a4.389,4.389,0,0,0-2.749-2.949v-3.2h-2.93v3.2a4.39,4.39,0,0,0-2.749,2.949c-3.511.909-10.853,2.647-13.462,2.647A6.494,6.494,0,0,1,2.632,9.478L.293,11.244a9.853,9.853,0,0,0,4.99,3.236L0,27.964a7.324,7.324,0,1,0,14.648,0l-5.26-13.37c3.549-.464,9.037-1.78,11.608-2.437a4.4,4.4,0,0,0,2.539,2.336v17.87h-2.93V39.7a4.4,4.4,0,0,1-4.395,4.4H11.816v2.933H38.184V44.1H33.789a4.4,4.4,0,0,1-4.395-4.4V32.364h-2.93V14.494A4.4,4.4,0,0,0,29,12.158c2.566.655,8.038,1.968,11.587,2.434L35.352,27.964a7.324,7.324,0,1,0,14.648,0L44.7,14.486a9.844,9.844,0,0,0,5.01-3.242ZM11.02,26.5H3.628l3.7-9.251Zm35.352,0H38.98l3.7-9.251Z" fill="#fff"/>
      </g>
    </g>
  </g>
</svg>
